<?xml version="1.0" encoding="UTF-8"?>
<svg version="1.1" xmlns="http://www.w3.org/2000/svg" width="828" height="242">
<path d="M0 0 C4.95 0 9.9 0 15 0 C15 0.66 15 1.32 15 2 C15.99 2 16.98 2 18 2 C18 2.99 18 3.98 18 5 C18.99 5 19.98 5 21 5 C21 6.98 21 8.96 21 11 C21.99 11 22.98 11 24 11 C24 11.99 24 12.98 24 14 C24.99 14 25.98 14 27 14 C27 14.99 27 15.98 27 17 C27.99 17 28.98 17 30 17 C30 18.98 30 20.96 30 23 C30.66 23 31.32 23 32 23 C32 23.66 32 24.32 32 25 C32.99 25 33.98 25 35 25 C35 25.99 35 26.98 35 28 C35.99 28 36.98 28 38 28 C38 28.99 38 29.98 38 31 C38.99 31 39.98 31 41 31 C41 31.99 41 32.98 41 34 C41.99 34 42.98 34 44 34 C44 35.98 44 37.96 44 40 C44.99 40 45.98 40 47 40 C47 40.99 47 41.98 47 43 C47.99 43 48.98 43 50 43 C50 43.99 50 44.98 50 46 C50.99 46 51.98 46 53 46 C53 46.99 53 47.98 53 49 C53.66 49 54.32 49 55 49 C55 49.66 55 50.32 55 51 C55.99 51 56.98 51 58 51 C58 51.99 58 52.98 58 54 C58.99 54 59.98 54 61 54 C61 54.99 61 55.98 61 57 C61.99 57 62.98 57 64 57 C64 57.99 64 58.98 64 60 C64.99 60 65.98 60 67 60 C67 60.99 67 61.98 67 63 C67.99 63 68.98 63 70 63 C70 63.99 70 64.98 70 66 C70.99 66 71.98 66 73 66 C73 66.99 73 67.98 73 69 C73.99 69 74.98 69 76 69 C76 69.99 76 70.98 76 72 C76.99 72 77.98 72 79 72 C79 72.66 79 73.32 79 74 C79.66 74 80.32 74 81 74 C81 74.99 81 75.98 81 77 C81.99 77 82.98 77 84 77 C84 77.99 84 78.98 84 80 C84.99 80 85.98 80 87 80 C87 80.99 87 81.98 87 83 C88.98 83 90.96 83 93 83 C93 83.99 93 84.98 93 86 C93.99 86 94.98 86 96 86 C96 86.99 96 87.98 96 89 C96.99 89 97.98 89 99 89 C99 89.99 99 90.98 99 92 C99.99 92 100.98 92 102 92 C102 92.99 102 93.98 102 95 C102.66 95 103.32 95 104 95 C104 95.99 104 96.98 104 98 C105.98 98 107.96 98 110 98 C110 98.66 110 99.32 110 100 C110.99 100 111.98 100 113 100 C113 100.99 113 101.98 113 103 C113.99 103 114.98 103 116 103 C116 103.99 116 104.98 116 106 C117.98 106 119.96 106 122 106 C122 106.99 122 107.98 122 109 C122.99 109 123.98 109 125 109 C125 109.99 125 110.98 125 112 C126.65 112 128.3 112 130 112 C130 113.98 130 115.96 130 118 C130.99 118 131.98 118 133 118 C133 119.98 133 121.96 133 124 C132.01 124 131.02 124 130 124 C130 125.98 130 127.96 130 130 C128.35 130 126.7 130 125 130 C125 130.99 125 131.98 125 133 C123.02 133 121.04 133 119 133 C119 133.99 119 134.98 119 136 C118.01 136 117.02 136 116 136 C116 136.99 116 137.98 116 139 C115.01 139 114.02 139 113 139 C113 139.99 113 140.98 113 142 C111.02 142 109.04 142 107 142 C107 142.66 107 143.32 107 144 C106.01 144 105.02 144 104 144 C104 144.99 104 145.98 104 147 C103.34 147 102.68 147 102 147 C102 147.99 102 148.98 102 150 C101.01 150 100.02 150 99 150 C99 150.99 99 151.98 99 153 C97.02 153 95.04 153 93 153 C93 153.99 93 154.98 93 156 C92.01 156 91.02 156 90 156 C90 156.99 90 157.98 90 159 C89.01 159 88.02 159 87 159 C87 159.99 87 160.98 87 162 C86.01 162 85.02 162 84 162 C84 162.99 84 163.98 84 165 C83.01 165 82.02 165 81 165 C81 165.99 81 166.98 81 168 C80.34 168 79.68 168 79 168 C79 168.66 79 169.32 79 170 C78.01 170 77.02 170 76 170 C76 170.99 76 171.98 76 173 C75.01 173 74.02 173 73 173 C73 173.99 73 174.98 73 176 C72.01 176 71.02 176 70 176 C70 176.99 70 177.98 70 179 C69.01 179 68.02 179 67 179 C67 179.99 67 180.98 67 182 C66.01 182 65.02 182 64 182 C64 182.99 64 183.98 64 185 C63.01 185 62.02 185 61 185 C61 185.99 61 186.98 61 188 C60.01 188 59.02 188 58 188 C58 188.99 58 189.98 58 191 C57.01 191 56.02 191 55 191 C55 191.66 55 192.32 55 193 C54.34 193 53.68 193 53 193 C53 193.99 53 194.98 53 196 C52.01 196 51.02 196 50 196 C50 196.99 50 197.98 50 199 C49.01 199 48.02 199 47 199 C47 199.99 47 200.98 47 202 C46.01 202 45.02 202 44 202 C44 202.99 44 203.98 44 205 C43.01 205 42.02 205 41 205 C41 205.99 41 206.98 41 208 C40.01 208 39.02 208 38 208 C38 209.98 38 211.96 38 214 C37.01 214 36.02 214 35 214 C35 214.99 35 215.98 35 217 C34.01 217 33.02 217 32 217 C32 217.66 32 218.32 32 219 C31.34 219 30.68 219 30 219 C30 219.99 30 220.98 30 222 C29.01 222 28.02 222 27 222 C27 223.98 27 225.96 27 228 C26.01 228 25.02 228 24 228 C24 228.99 24 229.98 24 231 C23.01 231 22.02 231 21 231 C21 231.99 21 232.98 21 234 C20.01 234 19.02 234 18 234 C18 235.98 18 237.96 18 240 C17.01 240 16.02 240 15 240 C15 240.66 15 241.32 15 242 C10.05 242 5.1 242 0 242 C0 240.35 0 238.7 0 237 C-0.99 237 -1.98 237 -3 237 C-3 236.01 -3 235.02 -3 234 C-3.99 234 -4.98 234 -6 234 C-6 232.02 -6 230.04 -6 228 C-6.99 228 -7.98 228 -9 228 C-9 227.01 -9 226.02 -9 225 C-9.99 225 -10.98 225 -12 225 C-12 224.01 -12 223.02 -12 222 C-12.99 222 -13.98 222 -15 222 C-15 220.35 -15 218.7 -15 217 C-15.66 217 -16.32 217 -17 217 C-17 216.01 -17 215.02 -17 214 C-17.99 214 -18.98 214 -20 214 C-20 213.01 -20 212.02 -20 211 C-20.99 211 -21.98 211 -23 211 C-23 210.01 -23 209.02 -23 208 C-23.99 208 -24.98 208 -26 208 C-26 207.01 -26 206.02 -26 205 C-26.99 205 -27.98 205 -29 205 C-29 203.02 -29 201.04 -29 199 C-29.99 199 -30.98 199 -32 199 C-32 198.01 -32 197.02 -32 196 C-32.99 196 -33.98 196 -35 196 C-35 195.01 -35 194.02 -35 193 C-35.99 193 -36.98 193 -38 193 C-38 192.34 -38 191.68 -38 191 C-38.99 190.67 -39.98 190.34 -41 190 C-41 189.34 -41 188.68 -41 188 C-41.66 188 -42.32 188 -43 188 C-43 187.01 -43 186.02 -43 185 C-43.99 185 -44.98 185 -46 185 C-46 184.01 -46 183.02 -46 182 C-46.99 182 -47.98 182 -49 182 C-49 181.01 -49 180.02 -49 179 C-49.99 179 -50.98 179 -52 179 C-52 178.01 -52 177.02 -52 176 C-52.99 176 -53.98 176 -55 176 C-55 175.01 -55 174.02 -55 173 C-55.99 173 -56.98 173 -58 173 C-58 172.01 -58 171.02 -58 170 C-58.99 170 -59.98 170 -61 170 C-61 169.34 -61 168.68 -61 168 C-61.99 167.67 -62.98 167.34 -64 167 C-64 166.34 -64 165.68 -64 165 C-64.66 165 -65.32 165 -66 165 C-66 164.01 -66 163.02 -66 162 C-66.99 162 -67.98 162 -69 162 C-69 161.01 -69 160.02 -69 159 C-70.98 159 -72.96 159 -75 159 C-75 158.01 -75 157.02 -75 156 C-75.99 156 -76.98 156 -78 156 C-78 155.01 -78 154.02 -78 153 C-78.99 153 -79.98 153 -81 153 C-81 152.01 -81 151.02 -81 150 C-81.99 150 -82.98 150 -84 150 C-84 149.01 -84 148.02 -84 147 C-84.99 147 -85.98 147 -87 147 C-87 146.01 -87 145.02 -87 144 C-88.65 144 -90.3 144 -92 144 C-92 143.34 -92 142.68 -92 142 C-92.99 142 -93.98 142 -95 142 C-95 141.01 -95 140.02 -95 139 C-95.99 139 -96.98 139 -98 139 C-98 138.01 -98 137.02 -98 136 C-99.98 136 -101.96 136 -104 136 C-104 135.01 -104 134.02 -104 133 C-104.99 133 -105.98 133 -107 133 C-107 132.01 -107 131.02 -107 130 C-108.98 130 -110.96 130 -113 130 C-113 129.01 -113 128.02 -113 127 C-113.66 127 -114.32 127 -115 127 C-115 123.04 -115 119.08 -115 115 C-114.34 115 -113.68 115 -113 115 C-113 114.01 -113 113.02 -113 112 C-112.01 112 -111.02 112 -110 112 C-110 111.01 -110 110.02 -110 109 C-108.02 109 -106.04 109 -104 109 C-104 108.01 -104 107.02 -104 106 C-103.01 106 -102.02 106 -101 106 C-101 105.01 -101 104.02 -101 103 C-100.01 103 -99.02 103 -98 103 C-98 102.01 -98 101.02 -98 100 C-96.02 100 -94.04 100 -92 100 C-92 99.34 -92 98.68 -92 98 C-91.34 98 -90.68 98 -90 98 C-90 97.01 -90 96.02 -90 95 C-89.01 95 -88.02 95 -87 95 C-87 94.01 -87 93.02 -87 92 C-86.01 92 -85.02 92 -84 92 C-84 91.01 -84 90.02 -84 89 C-82.02 89 -80.04 89 -78 89 C-78 88.01 -78 87.02 -78 86 C-77.01 86 -76.02 86 -75 86 C-75 85.01 -75 84.02 -75 83 C-74.01 83 -73.02 83 -72 83 C-72 82.01 -72 81.02 -72 80 C-71.01 80 -70.02 80 -69 80 C-69 79.01 -69 78.02 -69 77 C-68.01 77 -67.02 77 -66 77 C-66 76.01 -66 75.02 -66 74 C-65.34 74 -64.68 74 -64 74 C-64 73.34 -64 72.68 -64 72 C-63.01 72 -62.02 72 -61 72 C-61 71.01 -61 70.02 -61 69 C-60.01 69 -59.02 69 -58 69 C-58 68.01 -58 67.02 -58 66 C-57.01 66 -56.02 66 -55 66 C-55 65.01 -55 64.02 -55 63 C-54.01 63 -53.02 63 -52 63 C-52 62.01 -52 61.02 -52 60 C-51.01 60 -50.02 60 -49 60 C-49 59.01 -49 58.02 -49 57 C-48.01 57 -47.02 57 -46 57 C-46 56.01 -46 55.02 -46 54 C-45.01 54 -44.02 54 -43 54 C-43 53.01 -43 52.02 -43 51 C-42.34 51 -41.68 51 -41 51 C-41 50.34 -41 49.68 -41 49 C-40.01 49 -39.02 49 -38 49 C-38 48.01 -38 47.02 -38 46 C-37.01 46 -36.02 46 -35 46 C-35 45.01 -35 44.02 -35 43 C-34.01 43 -33.02 43 -32 43 C-32 42.01 -32 41.02 -32 40 C-31.01 40 -30.02 40 -29 40 C-29 39.01 -29 38.02 -29 37 C-28.01 37 -27.02 37 -26 37 C-26 36.01 -26 35.02 -26 34 C-25.01 34 -24.02 34 -23 34 C-23 33.01 -23 32.02 -23 31 C-22.01 31 -21.02 31 -20 31 C-20 29.02 -20 27.04 -20 25 C-19.01 25 -18.02 25 -17 25 C-17 24.34 -17 23.68 -17 23 C-16.34 23 -15.68 23 -15 23 C-15 22.01 -15 21.02 -15 20 C-14.01 20 -13.02 20 -12 20 C-12 19.01 -12 18.02 -12 17 C-11.01 17 -10.02 17 -9 17 C-9 15.02 -9 13.04 -9 11 C-8.01 11 -7.02 11 -6 11 C-6 10.01 -6 9.02 -6 8 C-5.01 8 -4.02 8 -3 8 C-3 7.01 -3 6.02 -3 5 C-2.01 5 -1.02 5 0 5 C0 3.35 0 1.7 0 0 Z M6 32 C6 32.66 6 33.32 6 34 C6.66 34 7.32 34 8 34 C8 33.34 8 32.68 8 32 C7.34 32 6.68 32 6 32 Z M1 35 C1 35.66 1 36.32 1 37 C2.65 37 4.3 37 6 37 C6 36.34 6 35.68 6 35 C4.35 35 2.7 35 1 35 Z M12 35 C12 35.66 12 36.32 12 37 C13.65 37 15.3 37 17 37 C17 36.34 17 35.68 17 35 C15.35 35 13.7 35 12 35 Z M-2 38 C-2 38.66 -2 39.32 -2 40 C-1.34 40 -0.68 40 0 40 C0 39.34 0 38.68 0 38 C-0.66 38 -1.32 38 -2 38 Z M18 38 C18 38.66 18 39.32 18 40 C18.66 40 19.32 40 20 40 C20 39.34 20 38.68 20 38 C19.34 38 18.68 38 18 38 Z M24 41 C24 41.66 24 42.32 24 43 C24.66 43 25.32 43 26 43 C26 42.34 26 41.68 26 41 C25.34 41 24.68 41 24 41 Z M-11 44 C-11 44.66 -11 45.32 -11 46 C-10.34 46 -9.68 46 -9 46 C-9 45.34 -9 44.68 -9 44 C-9.66 44 -10.32 44 -11 44 Z M27 44 C27 44.66 27 45.32 27 46 C27.66 46 28.32 46 29 46 C29 45.34 29 44.68 29 44 C28.34 44 27.68 44 27 44 Z M-14 47 C-14 47.66 -14 48.32 -14 49 C-13.34 49 -12.68 49 -12 49 C-12 48.34 -12 47.68 -12 47 C-12.66 47 -13.32 47 -14 47 Z M30 47 C30 47.66 30 48.32 30 49 C30.66 49 31.32 49 32 49 C32 48.34 32 47.68 32 47 C31.34 47 30.68 47 30 47 Z M-17 49 C-17 49.66 -17 50.32 -17 51 C-16.34 51 -15.68 51 -15 51 C-15 50.34 -15 49.68 -15 49 C-15.66 49 -16.32 49 -17 49 Z M32 49 C32 49.66 32 50.32 32 51 C32.66 51 33.32 51 34 51 C34 50.34 34 49.68 34 49 C33.34 49 32.68 49 32 49 Z M-25 55 C-25 55.66 -25 56.32 -25 57 C-24.34 57 -23.68 57 -23 57 C-23 56.34 -23 55.68 -23 55 C-23.66 55 -24.32 55 -25 55 Z M-28 58 C-28 58.66 -28 59.32 -28 60 C-27.34 60 -26.68 60 -26 60 C-26 59.34 -26 58.68 -26 58 C-26.66 58 -27.32 58 -28 58 Z M44 58 C44 58.66 44 59.32 44 60 C44.66 60 45.32 60 46 60 C46 59.34 46 58.68 46 58 C45.34 58 44.68 58 44 58 Z M-31 61 C-31 61.66 -31 62.32 -31 63 C-30.34 63 -29.68 63 -29 63 C-29 62.34 -29 61.68 -29 61 C-29.66 61 -30.32 61 -31 61 Z M47 61 C47 61.66 47 62.32 47 63 C47.66 63 48.32 63 49 63 C49 62.34 49 61.68 49 61 C48.34 61 47.68 61 47 61 Z M-34 64 C-34 64.66 -34 65.32 -34 66 C-33.34 66 -32.68 66 -32 66 C-32 65.34 -32 64.68 -32 64 C-32.66 64 -33.32 64 -34 64 Z M6 64 C6 66.64 6 69.28 6 72 C5.34 72 4.68 72 4 72 C4 74.97 4 77.94 4 81 C3.01 81 2.02 81 1 81 C1 82.98 1 84.96 1 87 C0.01 87 -0.98 87 -2 87 C-2 88.65 -2 90.3 -2 92 C0.64 92 3.28 92 6 92 C6 96.95 6 101.9 6 107 C5.34 107 4.68 107 4 107 C4 114.26 4 121.52 4 129 C6.31 129 8.62 129 11 129 C11 116.79 11 104.58 11 92 C13.97 92 16.94 92 20 92 C20 91.34 20 90.68 20 90 C19.01 90 18.02 90 17 90 C17 88.02 17 86.04 17 84 C16.01 84 15.02 84 14 84 C14 81.03 14 78.06 14 75 C13.01 75 12.02 75 11 75 C11 72.36 11 69.72 11 67 C10.01 67 9.02 67 8 67 C8 66.01 8 65.02 8 64 C7.34 64 6.68 64 6 64 Z M50 64 C50 64.66 50 65.32 50 66 C50.66 66 51.32 66 52 66 C52 65.34 52 64.68 52 64 C51.34 64 50.68 64 50 64 Z M-37 67 C-37 67.66 -37 68.32 -37 69 C-36.34 69 -35.68 69 -35 69 C-35 68.34 -35 67.68 -35 67 C-35.66 67 -36.32 67 -37 67 Z M53 67 C53 67.66 53 68.32 53 69 C53.66 69 54.32 69 55 69 C55 68.34 55 67.68 55 67 C54.34 67 53.68 67 53 67 Z M-40 70 C-40 70.66 -40 71.32 -40 72 C-39.34 72 -38.68 72 -38 72 C-38 71.34 -38 70.68 -38 70 C-38.66 70 -39.32 70 -40 70 Z M55 70 C55 70.66 55 71.32 55 72 C55.66 72 56.32 72 57 72 C57 71.34 57 70.68 57 70 C56.34 70 55.68 70 55 70 Z M-43 72 C-43 72.66 -43 73.32 -43 74 C-42.34 74 -41.68 74 -41 74 C-41 73.34 -41 72.68 -41 72 C-41.66 72 -42.32 72 -43 72 Z M58 72 C58 72.66 58 73.32 58 74 C58.66 74 59.32 74 60 74 C60 73.34 60 72.68 60 72 C59.34 72 58.68 72 58 72 Z M-45 75 C-45 75.66 -45 76.32 -45 77 C-44.34 77 -43.68 77 -43 77 C-43 76.34 -43 75.68 -43 75 C-43.66 75 -44.32 75 -45 75 Z M61 75 C61 75.66 61 76.32 61 77 C61.66 77 62.32 77 63 77 C63 76.34 63 75.68 63 75 C62.34 75 61.68 75 61 75 Z M-48 78 C-48 78.66 -48 79.32 -48 80 C-47.34 80 -46.68 80 -46 80 C-46 79.34 -46 78.68 -46 78 C-46.66 78 -47.32 78 -48 78 Z M64 78 C64 78.66 64 79.32 64 80 C64.66 80 65.32 80 66 80 C66 79.34 66 78.68 66 78 C65.34 78 64.68 78 64 78 Z M-51 81 C-51 81.66 -51 82.32 -51 83 C-50.34 83 -49.68 83 -49 83 C-49 82.34 -49 81.68 -49 81 C-49.66 81 -50.32 81 -51 81 Z M67 81 C67 81.66 67 82.32 67 83 C67.66 83 68.32 83 69 83 C69 82.34 69 81.68 69 81 C68.34 81 67.68 81 67 81 Z M-54 84 C-54 84.66 -54 85.32 -54 86 C-53.34 86 -52.68 86 -52 86 C-52 85.34 -52 84.68 -52 84 C-52.66 84 -53.32 84 -54 84 Z M70 84 C70 84.66 70 85.32 70 86 C70.66 86 71.32 86 72 86 C72 85.34 72 84.68 72 84 C71.34 84 70.68 84 70 84 Z M-57 87 C-57 87.66 -57 88.32 -57 89 C-56.34 89 -55.68 89 -55 89 C-55 88.34 -55 87.68 -55 87 C-55.66 87 -56.32 87 -57 87 Z M-60 90 C-60 90.66 -60 91.32 -60 92 C-59.34 92 -58.68 92 -58 92 C-58 91.34 -58 90.68 -58 90 C-58.66 90 -59.32 90 -60 90 Z M-63 93 C-63 93.66 -63 94.32 -63 95 C-62.34 95 -61.68 95 -61 95 C-61 94.34 -61 93.68 -61 93 C-61.66 93 -62.32 93 -63 93 Z M81 98 C81 98.66 81 99.32 81 100 C81.66 100 82.32 100 83 100 C83 99.34 83 98.68 83 98 C82.34 98 81.68 98 81 98 Z M-68 101 C-68 101.66 -68 102.32 -68 103 C-67.34 103 -66.68 103 -66 103 C-66 102.34 -66 101.68 -66 101 C-66.66 101 -67.32 101 -68 101 Z M84 101 C84 101.66 84 102.32 84 103 C84.66 103 85.32 103 86 103 C86 102.34 86 101.68 86 101 C85.34 101 84.68 101 84 101 Z M-71 104 C-71 104.66 -71 105.32 -71 106 C-70.34 106 -69.68 106 -69 106 C-69 105.34 -69 104.68 -69 104 C-69.66 104 -70.32 104 -71 104 Z M-25 104 C-25 104.99 -25 105.98 -25 107 C-26.98 107 -28.96 107 -31 107 C-31 107.99 -31 108.98 -31 110 C-32.98 110 -34.96 110 -37 110 C-37 110.99 -37 111.98 -37 113 C-37.99 113 -38.98 113 -40 113 C-40 113.99 -40 114.98 -40 116 C-40.99 116 -41.98 116 -43 116 C-43 118.31 -43 120.62 -43 123 C-42.01 123 -41.02 123 -40 123 C-40 123.99 -40 124.98 -40 126 C-39.01 126 -38.02 126 -37 126 C-37 126.99 -37 127.98 -37 129 C-35.02 129 -33.04 129 -31 129 C-31 129.99 -31 130.98 -31 132 C-28.03 132 -25.06 132 -22 132 C-22 132.99 -22 133.98 -22 135 C-18.7 135 -15.4 135 -12 135 C-12 134.34 -12 133.68 -12 133 C-14.64 133 -17.28 133 -20 133 C-20 132.01 -20 131.02 -20 130 C-21.98 130 -23.96 130 -26 130 C-26 129.01 -26 128.02 -26 127 C-26.99 127 -27.98 127 -29 127 C-29 124.03 -29 121.06 -29 118 C-28.01 118 -27.02 118 -26 118 C-26 117.01 -26 116.02 -26 115 C-25.01 115 -24.02 115 -23 115 C-23 114.01 -23 113.02 -23 112 C-22.01 112 -21.02 112 -20 112 C-20 111.01 -20 110.02 -20 109 C-18.35 109 -16.7 109 -15 109 C-15 108.34 -15 107.68 -15 107 C-15.66 107 -16.32 107 -17 107 C-17 106.01 -17 105.02 -17 104 C-19.64 104 -22.28 104 -25 104 Z M-74 107 C-74 107.66 -74 108.32 -74 109 C-73.34 109 -72.68 109 -72 109 C-72 108.34 -72 107.68 -72 107 C-72.66 107 -73.32 107 -74 107 Z M32 107 C32 107.66 32 108.32 32 109 C34.64 109 37.28 109 40 109 C40 108.34 40 107.68 40 107 C37.36 107 34.72 107 32 107 Z M41 110 C41 110.66 41 111.32 41 112 C41.66 112 42.32 112 43 112 C43 111.34 43 110.68 43 110 C42.34 110 41.68 110 41 110 Z M90 110 C90 110.66 90 111.32 90 112 C90.66 112 91.32 112 92 112 C92 111.34 92 110.68 92 110 C91.34 110 90.68 110 90 110 Z M-77 113 C-77 113.66 -77 114.32 -77 115 C-76.34 115 -75.68 115 -75 115 C-75 114.34 -75 113.68 -75 113 C-75.66 113 -76.32 113 -77 113 Z M50 116 C50 119.3 50 122.6 50 126 C50.66 126 51.32 126 52 126 C52 125.01 52 124.02 52 123 C52.99 123 53.98 123 55 123 C55 122.34 55 121.68 55 121 C54.01 121 53.02 121 52 121 C52 119.35 52 117.7 52 116 C51.34 116 50.68 116 50 116 Z M93 116 C93 116.66 93 117.32 93 118 C93.66 118 94.32 118 95 118 C95 117.34 95 116.68 95 116 C94.34 116 93.68 116 93 116 Z M-80 119 C-80 120.32 -80 121.64 -80 123 C-79.34 123 -78.68 123 -78 123 C-78 121.68 -78 120.36 -78 119 C-78.66 119 -79.32 119 -80 119 Z M93 124 C93 124.66 93 125.32 93 126 C93.66 126 94.32 126 95 126 C95 125.34 95 124.68 95 124 C94.34 124 93.68 124 93 124 Z M-77 127 C-77 127.66 -77 128.32 -77 129 C-76.34 129 -75.68 129 -75 129 C-75 128.34 -75 127.68 -75 127 C-75.66 127 -76.32 127 -77 127 Z M47 127 C47 127.66 47 128.32 47 129 C47.66 129 48.32 129 49 129 C49 128.34 49 127.68 49 127 C48.34 127 47.68 127 47 127 Z M41 130 C41 130.66 41 131.32 41 132 C41.66 132 42.32 132 43 132 C43 131.34 43 130.68 43 130 C42.34 130 41.68 130 41 130 Z M90 130 C90 130.66 90 131.32 90 132 C90.66 132 91.32 132 92 132 C92 131.34 92 130.68 92 130 C91.34 130 90.68 130 90 130 Z M30 133 C30 133.66 30 134.32 30 135 C31.32 135 32.64 135 34 135 C34 134.34 34 133.68 34 133 C32.68 133 31.36 133 30 133 Z M-71 136 C-71 136.66 -71 137.32 -71 138 C-70.34 138 -69.68 138 -69 138 C-69 137.34 -69 136.68 -69 136 C-69.66 136 -70.32 136 -71 136 Z M-8 136 C-8 136.66 -8 137.32 -8 138 C1.24 138 10.48 138 20 138 C20 137.34 20 136.68 20 136 C10.76 136 1.52 136 -8 136 Z M-68 139 C-68 139.66 -68 140.32 -68 141 C-67.34 141 -66.68 141 -66 141 C-66 140.34 -66 139.68 -66 139 C-66.66 139 -67.32 139 -68 139 Z M84 139 C84 139.66 84 140.32 84 141 C84.66 141 85.32 141 86 141 C86 140.34 86 139.68 86 139 C85.34 139 84.68 139 84 139 Z M-66 142 C-66 142.66 -66 143.32 -66 144 C-65.34 144 -64.68 144 -64 144 C-64 143.34 -64 142.68 -64 142 C-64.66 142 -65.32 142 -66 142 Z M81 142 C81 142.66 81 143.32 81 144 C81.66 144 82.32 144 83 144 C83 143.34 83 142.68 83 142 C82.34 142 81.68 142 81 142 Z M4 144 C4 154.56 4 165.12 4 176 C3.01 176 2.02 176 1 176 C1 176.66 1 177.32 1 178 C5.29 178 9.58 178 14 178 C14 167.77 14 157.54 14 147 C13.01 147 12.02 147 11 147 C11 146.01 11 145.02 11 144 C8.69 144 6.38 144 4 144 Z M79 144 C79 144.66 79 145.32 79 146 C79.66 146 80.32 146 81 146 C81 145.34 81 144.68 81 144 C80.34 144 79.68 144 79 144 Z M-60 150 C-60 150.66 -60 151.32 -60 152 C-59.34 152 -58.68 152 -58 152 C-58 151.34 -58 150.68 -58 150 C-58.66 150 -59.32 150 -60 150 Z M-57 153 C-57 153.66 -57 154.32 -57 155 C-56.34 155 -55.68 155 -55 155 C-55 154.34 -55 153.68 -55 153 C-55.66 153 -56.32 153 -57 153 Z M-54 156 C-54 156.66 -54 157.32 -54 158 C-53.34 158 -52.68 158 -52 158 C-52 157.34 -52 156.68 -52 156 C-52.66 156 -53.32 156 -54 156 Z M-51 159 C-51 159.66 -51 160.32 -51 161 C-50.34 161 -49.68 161 -49 161 C-49 160.34 -49 159.68 -49 159 C-49.66 159 -50.32 159 -51 159 Z M67 159 C67 159.66 67 160.32 67 161 C67.66 161 68.32 161 69 161 C69 160.34 69 159.68 69 159 C68.34 159 67.68 159 67 159 Z M-48 162 C-48 162.66 -48 163.32 -48 164 C-47.34 164 -46.68 164 -46 164 C-46 163.34 -46 162.68 -46 162 C-46.66 162 -47.32 162 -48 162 Z M64 162 C64 162.66 64 163.32 64 164 C64.66 164 65.32 164 66 164 C66 163.34 66 162.68 66 162 C65.34 162 64.68 162 64 162 Z M-45 165 C-45 165.66 -45 166.32 -45 167 C-44.34 167 -43.68 167 -43 167 C-43 166.34 -43 165.68 -43 165 C-43.66 165 -44.32 165 -45 165 Z M61 165 C61 165.66 61 166.32 61 167 C61.66 167 62.32 167 63 167 C63 166.34 63 165.68 63 165 C62.34 165 61.68 165 61 165 Z M-43 168 C-43 168.66 -43 169.32 -43 170 C-42.34 170 -41.68 170 -41 170 C-41 169.34 -41 168.68 -41 168 C-41.66 168 -42.32 168 -43 168 Z M58 168 C58 168.66 58 169.32 58 170 C58.66 170 59.32 170 60 170 C60 169.34 60 168.68 60 168 C59.34 168 58.68 168 58 168 Z M-40 170 C-40 170.66 -40 171.32 -40 172 C-39.34 172 -38.68 172 -38 172 C-38 171.34 -38 170.68 -38 170 C-38.66 170 -39.32 170 -40 170 Z M55 170 C55 170.66 55 171.32 55 172 C55.66 172 56.32 172 57 172 C57 171.34 57 170.68 57 170 C56.34 170 55.68 170 55 170 Z M-37 173 C-37 173.66 -37 174.32 -37 175 C-36.34 175 -35.68 175 -35 175 C-35 174.34 -35 173.68 -35 173 C-35.66 173 -36.32 173 -37 173 Z M53 173 C53 173.66 53 174.32 53 175 C53.66 175 54.32 175 55 175 C55 174.34 55 173.68 55 173 C54.34 173 53.68 173 53 173 Z M-34 176 C-34 176.66 -34 177.32 -34 178 C-33.34 178 -32.68 178 -32 178 C-32 177.34 -32 176.68 -32 176 C-32.66 176 -33.32 176 -34 176 Z M50 176 C50 176.66 50 177.32 50 178 C50.66 178 51.32 178 52 178 C52 177.34 52 176.68 52 176 C51.34 176 50.68 176 50 176 Z M-19 188 C-19 188.66 -19 189.32 -19 190 C-18.34 190 -17.68 190 -17 190 C-17 189.34 -17 188.68 -17 188 C-17.66 188 -18.32 188 -19 188 Z M-17 191 C-17 191.66 -17 192.32 -17 193 C-16.34 193 -15.68 193 -15 193 C-15 192.34 -15 191.68 -15 191 C-15.66 191 -16.32 191 -17 191 Z M32 191 C32 191.66 32 192.32 32 193 C32.66 193 33.32 193 34 193 C34 192.34 34 191.68 34 191 C33.34 191 32.68 191 32 191 Z M-14 193 C-14 193.66 -14 194.32 -14 195 C-13.34 195 -12.68 195 -12 195 C-12 194.34 -12 193.68 -12 193 C-12.66 193 -13.32 193 -14 193 Z M30 193 C30 193.66 30 194.32 30 195 C30.66 195 31.32 195 32 195 C32 194.34 32 193.68 32 193 C31.34 193 30.68 193 30 193 Z M-11 196 C-11 196.66 -11 197.32 -11 198 C-10.34 198 -9.68 198 -9 198 C-9 197.34 -9 196.68 -9 196 C-9.66 196 -10.32 196 -11 196 Z M-5 199 C-5 199.66 -5 200.32 -5 201 C-4.34 201 -3.68 201 -3 201 C-3 200.34 -3 199.68 -3 199 C-3.66 199 -4.32 199 -5 199 Z M-2 202 C-2 202.66 -2 203.32 -2 204 C-1.34 204 -0.68 204 0 204 C0 203.34 0 202.68 0 202 C-0.66 202 -1.32 202 -2 202 Z M18 202 C18 202.66 18 203.32 18 204 C18.66 204 19.32 204 20 204 C20 203.34 20 202.68 20 202 C19.34 202 18.68 202 18 202 Z M4 205 C4 205.66 4 206.32 4 207 C7.3 207 10.6 207 14 207 C14 206.34 14 205.68 14 205 C10.7 205 7.4 205 4 205 Z " fill="#FFFFFF" transform="translate(115,0)"/>
<path d="M0 0 C46.86 0 93.72 0 142 0 C142 12.87 142 25.74 142 39 C113.62 39 85.24 39 56 39 C56 49.89 56 60.78 56 72 C82.73 72 109.46 72 137 72 C137 84.54 137 97.08 137 110 C135.28012794 111.71987206 133.09122971 111.11974788 130.79867554 111.12442017 C130.05421173 111.12082489 129.30974792 111.11722961 128.54272461 111.11352539 C127.76229294 111.11367142 126.98186127 111.11381744 126.17778015 111.1139679 C123.5859402 111.11326858 120.99417122 111.10547536 118.40234375 111.09765625 C116.6101536 111.09579213 114.81796294 111.0943682 113.02577209 111.09336853 C108.29929203 111.08954284 103.57284248 111.07971212 98.84637451 111.06866455 C93.18044414 111.05665719 87.51450359 111.05204843 81.84856415 111.04621124 C73.23235484 111.03650039 64.61621257 111.0173442 56 111 C56 122.88 56 134.76 56 147 C84.38 147 112.76 147 142 147 C142 159.87 142 172.74 142 186 C123.63315332 186.02254622 105.26631778 186.0409787 86.89946079 186.05181217 C78.37201506 186.05697533 69.84457851 186.06401841 61.31713867 186.07543945 C53.88733745 186.08538568 46.45754287 186.09185328 39.02773517 186.09408849 C35.0912668 186.09539571 31.15481747 186.09848221 27.21835518 186.10573006 C23.51746673 186.11248931 19.81660525 186.11461716 16.11571121 186.11310768 C14.10129198 186.11351638 12.08687573 186.11891207 10.07246399 186.12442017 C8.8846936 186.1230455 7.69692322 186.12167084 6.47315979 186.12025452 C5.4342991 186.12117631 4.3954384 186.1220981 3.32509708 186.12304783 C1 186 1 186 0 185 C-0.09765691 182.60931863 -0.12996979 180.24756733 -0.12025452 177.85643005 C-0.12110894 177.10011844 -0.12196337 176.34380683 -0.12284368 175.56457669 C-0.12450076 173.01104518 -0.11897342 170.45757827 -0.11352539 167.90405273 C-0.11324354 166.08126833 -0.11340121 164.2584838 -0.1139679 162.43569946 C-0.11425596 157.47103112 -0.10835779 152.50638672 -0.10139394 147.54172397 C-0.09516188 142.35936525 -0.09455672 137.17700605 -0.09336853 131.99464417 C-0.09025478 122.17382442 -0.08204079 112.35301574 -0.07201904 102.53220087 C-0.05877443 89.26647296 -0.05335835 76.00074204 -0.04751682 62.73500919 C-0.03810093 41.82333116 -0.01818231 20.9116765 0 0 Z " fill="#FFFFFF" transform="translate(518,31)"/>
<path d="M0 0 C46.86 0 93.72 0 142 0 C142 12.87 142 25.74 142 39 C113.62 39 85.24 39 56 39 C56 49.89 56 60.78 56 72 C82.4 72 108.8 72 136 72 C136 84.87 136 97.74 136 111 C109.6 111 83.2 111 56 111 C56 122.88 56 134.76 56 147 C84.38 147 112.76 147 142 147 C142 159.87 142 172.74 142 186 C95.14 186 48.28 186 0 186 C0 124.62 0 63.24 0 0 Z " fill="#FFFFFF" transform="translate(351,31)"/>
<path d="M0 0 C46.86 0 93.72 0 142 0 C142 12.87 142 25.74 142 39 C112.63 39 83.26 39 53 39 C53 49.89 53 60.78 53 72 C80.72 72 108.44 72 137 72 C137 84.87 137 97.74 137 111 C109.28 111 81.56 111 53 111 C53 122.88 53 134.76 53 147 C82.37 147 111.74 147 142 147 C142 159.87 142 172.74 142 186 C123.63315332 186.02254622 105.26631778 186.0409787 86.89946079 186.05181217 C78.37201506 186.05697533 69.84457851 186.06401841 61.31713867 186.07543945 C53.88733745 186.08538568 46.45754287 186.09185328 39.02773517 186.09408849 C35.0912668 186.09539571 31.15481747 186.09848221 27.21835518 186.10573006 C23.51746673 186.11248931 19.81660525 186.11461716 16.11571121 186.11310768 C14.10129198 186.11351638 12.08687573 186.11891207 10.07246399 186.12442017 C8.8846936 186.1230455 7.69692322 186.12167084 6.47315979 186.12025452 C5.4342991 186.12117631 4.3954384 186.1220981 3.32509708 186.12304783 C1 186 1 186 0 185 C-0.09765691 182.60931863 -0.12996979 180.24756733 -0.12025452 177.85643005 C-0.12110894 177.10011844 -0.12196337 176.34380683 -0.12284368 175.56457669 C-0.12450076 173.01104518 -0.11897342 170.45757827 -0.11352539 167.90405273 C-0.11324354 166.08126833 -0.11340121 164.2584838 -0.1139679 162.43569946 C-0.11425596 157.47103112 -0.10835779 152.50638672 -0.10139394 147.54172397 C-0.09516188 142.35936525 -0.09455672 137.17700605 -0.09336853 131.99464417 C-0.09025478 122.17382442 -0.08204079 112.35301574 -0.07201904 102.53220087 C-0.05877443 89.26647296 -0.05335835 76.00074204 -0.04751682 62.73500919 C-0.03810093 41.82333116 -0.01818231 20.9116765 0 0 Z " fill="#FFFFFF" transform="translate(685,31)"/>
<path d="M0 0 C18.48 0 36.96 0 56 0 C56 61.38 56 122.76 56 186 C37.85 186 19.7 186 1 186 C-0.67713191 184.32286809 -0.12218508 182.26784234 -0.12908131 180.02889246 C-0.12616847 179.31197986 -0.12325563 178.59506727 -0.12025452 177.85643005 C-0.12110894 177.10011844 -0.12196337 176.34380683 -0.12284368 175.56457669 C-0.12450076 173.01104518 -0.11897342 170.45757827 -0.11352539 167.90405273 C-0.11324354 166.08126833 -0.11340121 164.2584838 -0.1139679 162.43569946 C-0.11425596 157.47103112 -0.10835779 152.50638672 -0.10139394 147.54172397 C-0.09516188 142.35936525 -0.09455672 137.17700605 -0.09336853 131.99464417 C-0.09025478 122.17382442 -0.08204079 112.35301574 -0.07201904 102.53220087 C-0.06085927 91.35464094 -0.0553478 80.17708048 -0.05032361 68.99951637 C-0.03985821 45.99967002 -0.02151219 22.99983885 0 0 Z " fill="#FFFFFF" transform="translate(273,31)"/>
<path d="M0 0 C3.96 0 7.92 0 12 0 C12 0.99 12 1.98 12 3 C12.99 3 13.98 3 15 3 C15 7.95 15 12.9 15 18 C14.01 18 13.02 18 12 18 C12 18.99 12 19.98 12 21 C8.04 21 4.08 21 0 21 C0 20.01 0 19.02 0 18 C-0.99 18 -1.98 18 -3 18 C-3 13.05 -3 8.1 -3 3 C-2.01 3 -1.02 3 0 3 C0 2.01 0 1.02 0 0 Z " fill="#FFFFFF" transform="translate(158,213)"/>
</svg>
