<svg width="38" height="33" viewBox="0 0 38 33" fill="none" xmlns="http://www.w3.org/2000/svg">
<path d="M4.01497 7.41822C4.01497 5.76136 5.35812 4.41822 7.01497 4.41822H30.4687C32.1256 4.41822 33.4687 5.76136 33.4687 7.41822V22.5076C33.4687 24.1645 32.1256 25.5076 30.4687 25.5076H6.60458C6.32485 25.5076 6.05589 25.6154 5.85357 25.8085C5.16149 26.4693 4.01497 25.9787 4.01497 25.0219V7.41822ZM4.01497 0.90332C1.99003 0.90332 0.351661 2.48502 0.351661 4.41822L0.337336 29.035C0.335799 31.6751 3.49929 33.0297 5.40892 31.2066L6.82721 29.8526C7.3853 29.3198 8.12721 29.0225 8.8988 29.0225H33.4687C35.4937 29.0225 37.1505 27.4408 37.1505 25.5076V4.41822C37.1505 2.48502 35.4937 0.90332 33.4687 0.90332H4.01497ZM7.69669 20.2353C7.69669 19.2647 8.48353 18.4778 9.45414 18.4778H28.0296C29.0002 18.4778 29.787 19.2647 29.787 20.2353C29.787 21.2059 29.0002 21.9927 28.0296 21.9927H9.45414C8.48353 21.9927 7.69669 21.2059 7.69669 20.2353ZM7.69669 14.9629C7.69669 13.9923 8.48353 13.2055 9.45414 13.2055H28.0296C29.0002 13.2055 29.787 13.9923 29.787 14.9629C29.787 15.9335 29.0002 16.7204 28.0296 16.7204H9.45414C8.48353 16.7204 7.69669 15.9335 7.69669 14.9629ZM7.69669 9.69057C7.69669 8.71995 8.48353 7.93312 9.45414 7.93312H28.0296C29.0002 7.93312 29.787 8.71995 29.787 9.69057C29.787 10.6612 29.0002 11.448 28.0296 11.448H9.45414C8.48353 11.448 7.69669 10.6612 7.69669 9.69057Z" fill="#5A89FF"/>
</svg>
